<svg width="37" height="37" viewBox="0 0 37 37" fill="none" xmlns="http://www.w3.org/2000/svg">
<path d="M20.9413 0.101152C20.6231 0.245655 20.341 0.534661 20.1818 0.881468C20.0444 1.1777 20.0371 1.40168 20.0371 5.93907C20.0371 8.93029 20.0661 10.8883 20.1167 11.2423C20.4205 13.4243 21.6647 15.5124 23.4659 16.8491C24.2182 17.4126 25.4624 18.0123 26.3666 18.258C27.0321 18.4386 27.2057 18.453 28.5005 18.453C29.7374 18.4603 29.9906 18.4386 30.5476 18.2941C33.7087 17.4921 36.0307 15.1728 36.8336 12.0154C37 11.3868 37 11.3363 37 6.16305V0.95372L36.783 0.635813C36.4936 0.22398 36.0452 0 35.5099 0C35.2784 0 35.0035 0.0361258 34.8878 0.0794767C34.7793 0.122828 34.0776 0.614138 33.3253 1.17047L31.9654 2.18922L31.4084 2.00137C30.4753 1.68346 29.9544 1.58231 28.8983 1.53896C27.7265 1.49561 27.0031 1.59676 25.8457 1.95802L25.1224 2.182L23.7914 1.19215C23.0608 0.643038 22.3591 0.151728 22.2289 0.093927C21.9324 -0.0289006 21.2235 -0.0216755 20.9413 0.101152Z" fill="#F6C738"/>
<path d="M0.904203 9.4216C0.614858 9.54442 0.217009 9.94181 0.101271 10.238C0.0434018 10.3681 0 10.6571 0 10.8883C0 11.6975 0.484653 12.2683 1.28759 12.4273C2.92962 12.7379 3.78319 13.2437 4.20997 14.1685C4.47038 14.7104 4.55718 15.2017 4.55718 16.0687C4.55718 17.4849 4.28954 18.1568 2.60411 20.9529C1.07058 23.4962 0.571456 24.5872 0.202542 26.2345C0.057869 26.892 0.0361681 27.1738 0.0361681 28.4671C0.0434018 29.876 0.0506354 29.9844 0.23871 30.5913C1.20802 33.7342 3.78319 35.8801 7.68211 36.7905C8.34761 36.9494 8.41271 36.9494 16.5578 36.9711L24.7535 37L24.7245 34.9553C24.6956 33.1779 24.6667 32.8383 24.5365 32.3615C23.9433 30.1722 22.3519 28.5682 20.1601 27.9324C19.8129 27.8313 19.444 27.7012 19.3355 27.6434C18.3951 27.1593 18.33 25.7432 19.227 25.1146C19.6321 24.8256 20.0661 24.7967 20.8328 25.0062C23.8565 25.8082 26.2725 28.0842 27.2708 31.0537C27.6252 32.123 27.712 32.795 27.7554 34.9842L27.7988 36.9928H35.9294L36.2477 36.8266C36.4213 36.7327 36.6673 36.5159 36.783 36.3497C36.9783 36.068 37 35.9885 37 35.4466C37 34.9047 36.9783 34.818 36.7902 34.5507C36.66 34.3628 36.4502 34.1822 36.2188 34.0666C35.8788 33.9004 35.7703 33.886 34.9239 33.886H33.998V27.0582C33.998 23.2939 33.9691 20.2304 33.9329 20.2304C33.904 20.2304 33.6002 20.3533 33.2674 20.5122C31.9437 21.1191 30.5693 21.4442 28.9996 21.5093C26.3087 21.6177 23.8348 20.8446 21.6647 19.2189C20.6737 18.4819 19.4368 17.1814 18.981 16.4011C18.9087 16.2855 18.8002 16.1843 18.7351 16.1843C18.5108 16.1843 16.7458 17.1308 15.8416 17.7305C12.5214 19.9414 10.156 23.0988 8.79609 27.1304C8.25357 28.7344 7.88465 30.5768 7.73275 32.4193L7.64594 33.5103L7.13236 33.3296C4.9478 32.5421 3.56618 31.1476 3.21173 29.363C3.00196 28.3081 3.19726 26.8992 3.73978 25.5409C4.05806 24.7317 4.26061 24.3632 5.48309 22.3329C7.37107 19.1972 7.79785 17.9473 7.71828 15.787C7.60978 12.7524 6.17752 10.6571 3.60235 9.76118C2.45943 9.3638 1.35269 9.22652 0.904203 9.4216Z" fill="#F6C738"/>
</svg>
